<svg xmlns="http://www.w3.org/2000/svg" enable-background="new 0 0 64 64" viewBox="0 0 64 64"><path fill="#2b4a54" d="M17.67 9.21l.05.11c.12.24.48.42.85.42h21.36c.38 0 .73-.18.86-.44l.05-.11V7.07l-.01-.02V5.06l-.05-.11c-.14-.28-.54-.41-.85-.41h-5.14c-.6 0-1.15-.22-1.53-.61-.29-.3-.45-.67-.44-1.05.01-.27-.03-.53-.12-.79-.33-1.01-1.43-1.83-2.75-2.04C29.72.02 29.49 0 29.26 0c-1.02 0-1.96.33-2.65.92-.6.52-.94 1.19-.94 1.89 0 .44-.17.84-.49 1.16-.36.37-.87.57-1.44.57h-5.18c-.41 0-.76.19-.88.48l-.03.09V7.2l.01.02V9.21zM18.54 24.71h4.82c.56 0 1.02-.45 1.02-1.02v-4.81c0-.56-.46-1.02-1.02-1.02h-4.82c-.56 0-1.02.46-1.02 1.02v4.81C17.51 24.26 17.97 24.71 18.54 24.71zM19.56 19.9h2.77v2.76h-2.77V19.9zM17.51 33.28c0 .56.46 1.02 1.02 1.02h4.82c.56 0 1.02-.46 1.02-1.02v-4.81c0-.56-.46-1.02-1.02-1.02h-4.82c-.56 0-1.02.46-1.02 1.02V33.28zM19.56 29.49h2.77v2.76h-2.77V29.49zM24.38 42.88v-4.81c0-.56-.46-1.02-1.02-1.02h-4.82c-.56 0-1.02.46-1.02 1.02v4.81c0 .56.46 1.02 1.02 1.02h4.82C23.92 43.9 24.38 43.44 24.38 42.88zM22.33 41.85h-2.77v-2.76h2.77V41.85zM39.95 20.26H27.08c-.57 0-1.02.46-1.02 1.02 0 .57.46 1.02 1.02 1.02h12.88c.57 0 1.02-.46 1.02-1.02C40.98 20.72 40.52 20.26 39.95 20.26zM39.95 29.85H27.08c-.57 0-1.02.46-1.02 1.02 0 .57.46 1.02 1.02 1.02h12.88c.57 0 1.02-.46 1.02-1.02C40.98 30.31 40.52 29.85 39.95 29.85zM40.98 40.47c0-.57-.46-1.02-1.02-1.02H27.08c-.57 0-1.02.46-1.02 1.02 0 .57.46 1.02 1.02 1.02h12.88C40.52 41.49 40.98 41.03 40.98 40.47zM50.83 43.58c-.02 0-.04-.01-.07-.02-1.12-.4-2.32-.62-3.58-.62-.33 0-.65.01-.96.04-5.36.49-9.56 5.01-9.56 10.48 0 1.01.14 2 .41 2.93.02.07.04.13.06.19.44 1.41 1.17 2.7 2.12 3.79C41.17 62.6 44.01 64 47.17 64c5.81 0 10.54-4.73 10.54-10.54C57.71 48.95 54.84 45.08 50.83 43.58zM53.38 50.44l-7.47 7.49c-.2.2-.47.3-.73.3-.26 0-.5-.08-.7-.27L41 54.78c-.42-.39-.44-1.03-.06-1.45.38-.41 1.03-.44 1.44-.06l2.76 2.53 6.79-6.81c.4-.4 1.04-.4 1.44 0C53.78 49.39 53.78 50.04 53.38 50.44z"/><path fill="#2b4a54" d="M35.38,57.82h-23.1c-0.57,0-1.02-0.46-1.02-1.02V14.56c0-0.56,0.45-1.02,1.02-1.02h33.93
		c0.56,0,1.02,0.46,1.02,1.02v26.33c1,0,1.99,0.13,2.92,0.36c0.71,0.17,1.39,0.4,2.05,0.7V10.93c0-2.66-2.16-4.82-4.81-4.82h-5.03
		v2.05v0.93c0,1.2-1.1,2.18-2.44,2.18H18.57c-1.34,0-2.44-0.98-2.44-2.18V8.16V6.11H11.1c-2.65,0-4.81,2.16-4.81,4.82v46.39
		c0,2.65,2.16,4.8,4.81,4.8h26.96c-0.59-0.62-1.13-1.31-1.58-2.05C36.04,59.37,35.68,58.61,35.38,57.82z"/><path fill="#2b4a54" d="M19.07 50.78c-.57 0-1.02.46-1.02 1.02 0 .57.46 1.02 1.02 1.02h1.41c.57 0 1.02-.46 1.02-1.02 0-.57-.46-1.02-1.02-1.02H19.07zM24.02 52.83h1.41c.57 0 1.02-.46 1.02-1.02 0-.57-.46-1.02-1.02-1.02h-1.41c-.57 0-1.02.46-1.02 1.02C22.99 52.37 23.45 52.83 24.02 52.83zM28.97 50.78c-.57 0-1.02.46-1.02 1.02 0 .57.46 1.02 1.02 1.02h1.41c.57 0 1.02-.46 1.02-1.02 0-.57-.46-1.02-1.02-1.02H28.97z"/></svg>